<svg width="1800" height="1120" viewBox="0 0 1800 1120" xmlns="http://www.w3.org/2000/svg">
  <defs>
    <linearGradient id="pageBg" x1="0" y1="0" x2="0" y2="1">
      <stop offset="0%" stop-color="#F6F9FD"/>
      <stop offset="100%" stop-color="#EEF3F9"/>
    </linearGradient>
    <linearGradient id="blueBar" x1="0" y1="0" x2="1" y2="0">
      <stop offset="0%" stop-color="#8FB5E8"/>
      <stop offset="100%" stop-color="#7FA7DD"/>
    </linearGradient>
    <linearGradient id="softBlue" x1="0" y1="0" x2="0" y2="1">
      <stop offset="0%" stop-color="#EAF3FF"/>
      <stop offset="100%" stop-color="#E2EEFF"/>
    </linearGradient>
    <linearGradient id="softAmber" x1="0" y1="0" x2="0" y2="1">
      <stop offset="0%" stop-color="#FFF4DE"/>
      <stop offset="100%" stop-color="#FFEFCE"/>
    </linearGradient>
    <linearGradient id="softMint" x1="0" y1="0" x2="0" y2="1">
      <stop offset="0%" stop-color="#EDF9F1"/>
      <stop offset="100%" stop-color="#E5F5EB"/>
    </linearGradient>
    <filter id="shadow" x="-20%" y="-20%" width="140%" height="160%">
      <feDropShadow dx="0" dy="8" stdDeviation="10" flood-color="#C9D5E3" flood-opacity="0.35"/>
    </filter>
    <marker id="arrow" markerWidth="12" markerHeight="12" refX="10" refY="6" orient="auto">
      <path d="M0,0 L12,6 L0,12 z" fill="#1E3559"/>
    </marker>
    <style>
      .font { font-family: "Microsoft YaHei", "PingFang SC", sans-serif; }
      .title { font-size: 32px; font-weight: 700; fill: #123B5D; }
      .sub { font-size: 13px; fill: #617182; }
      .tag { font-size: 14px; font-weight: 700; fill: #1F3B62; }
      .layerText { font-size: 20px; font-weight: 700; fill: #1E2A36; letter-spacing: 2px; }
      .cardTitle { font-size: 18px; font-weight: 700; fill: #163A61; }
      .cardBody { font-size: 14px; fill: #334155; }
      .pillText { font-size: 12px; font-weight: 700; fill: #334155; }
      .centerTitle { font-size: 20px; font-weight: 700; fill: #123B5D; }
      .miniTitle { font-size: 16px; font-weight: 700; fill: #123B5D; }
      .tiny { font-size: 12px; fill: #64748B; }
    </style>
  </defs>

  <rect x="0" y="0" width="1800" height="1120" fill="url(#pageBg)"/>
  <rect x="42" y="34" width="1716" height="1052" rx="22" fill="#DCE6F4" stroke="#1F2E43" stroke-width="2"/>

  <text x="82" y="86" class="font title">产品技术架构补充图</text>
  <text x="82" y="112" class="font sub">参考汇报版分层排布重绘，内容已按当前系统真实口径收敛</text>

  <line x1="150" y1="146" x2="1730" y2="146" stroke="#1F2E43" stroke-width="2"/>
  <line x1="150" y1="322" x2="1730" y2="322" stroke="#1F2E43" stroke-width="2"/>
  <line x1="150" y1="394" x2="1730" y2="394" stroke="#1F2E43" stroke-width="2"/>
  <line x1="150" y1="852" x2="1730" y2="852" stroke="#1F2E43" stroke-width="2"/>
  <line x1="150" y1="1014" x2="1730" y2="1014" stroke="#1F2E43" stroke-width="2"/>
  <line x1="172" y1="146" x2="172" y2="1086" stroke="#1F2E43" stroke-width="2"/>

  <g transform="translate(92,236) rotate(-90)">
    <rect x="-32" y="-22" width="64" height="44" rx="10" fill="#FFFFFF" opacity="0.9"/>
    <text text-anchor="middle" dominant-baseline="middle" class="font layerText">视图层</text>
  </g>
  <g transform="translate(92,358) rotate(-90)">
    <rect x="-32" y="-22" width="64" height="44" rx="10" fill="#FFFFFF" opacity="0.9"/>
    <text text-anchor="middle" dominant-baseline="middle" class="font layerText">代理层</text>
  </g>
  <g transform="translate(92,623) rotate(-90)">
    <rect x="-48" y="-22" width="96" height="44" rx="10" fill="#FFFFFF" opacity="0.9"/>
    <text text-anchor="middle" dominant-baseline="middle" class="font layerText">服务层</text>
  </g>
  <g transform="translate(92,934) rotate(-90)">
    <rect x="-32" y="-22" width="64" height="44" rx="10" fill="#FFFFFF" opacity="0.9"/>
    <text text-anchor="middle" dominant-baseline="middle" class="font layerText">存储层</text>
  </g>
  <g transform="translate(92,1050) rotate(-90)">
    <rect x="-48" y="-22" width="96" height="44" rx="10" fill="#FFFFFF" opacity="0.9"/>
    <text text-anchor="middle" dominant-baseline="middle" class="font layerText">基础设施层</text>
  </g>

  <rect x="220" y="168" width="490" height="136" rx="24" fill="#9FC1F0" stroke="#203864" stroke-width="3" filter="url(#shadow)"/>
  <rect x="246" y="182" width="196" height="38" fill="#FFFFFF" stroke="#203864" stroke-width="2"/>
  <rect x="470" y="182" width="196" height="38" fill="#FFFFFF" stroke="#203864" stroke-width="2"/>
  <rect x="246" y="236" width="196" height="38" fill="#FFFFFF" stroke="#203864" stroke-width="2"/>
  <rect x="470" y="236" width="196" height="38" fill="#FFFFFF" stroke="#203864" stroke-width="2"/>
  <rect x="246" y="290" width="196" height="38" fill="#FFFFFF" stroke="#203864" stroke-width="2"/>
  <rect x="470" y="290" width="196" height="38" fill="#FFFFFF" stroke="#203864" stroke-width="2" stroke-dasharray="6 6"/>
  <text x="344" y="207" text-anchor="middle" class="font pillText">Vue 3.x</text>
  <text x="568" y="207" text-anchor="middle" class="font pillText">TypeScript 5.x</text>
  <text x="344" y="261" text-anchor="middle" class="font pillText">Element Plus</text>
  <text x="568" y="261" text-anchor="middle" class="font pillText">Vite 5.x</text>
  <text x="344" y="315" text-anchor="middle" class="font pillText">ECharts</text>
  <text x="568" y="315" text-anchor="middle" class="font pillText">Pinia / Router</text>

  <rect x="760" y="168" width="470" height="136" rx="22" fill="url(#softAmber)" stroke="#203864" stroke-width="2" filter="url(#shadow)"/>
  <rect x="794" y="206" width="402" height="72" fill="#FFFFFF" stroke="#203864" stroke-width="2"/>
  <text x="995" y="241" text-anchor="middle" class="font centerTitle">统一 Web 门户</text>
  <text x="995" y="267" text-anchor="middle" class="font cardBody">app-nav 承载 app-data / app-report / app-system</text>

  <rect x="1254" y="168" width="434" height="136" rx="22" fill="url(#softAmber)" stroke="#203864" stroke-width="2" filter="url(#shadow)"/>
  <rect x="1302" y="208" width="338" height="68" fill="#FFFFFF" stroke="#203864" stroke-width="2"/>
  <text x="1471" y="241" text-anchor="middle" class="font centerTitle">第三方系统集成</text>
  <text x="1471" y="267" text-anchor="middle" class="font cardBody">OpenAPI / OCR / FTP / TYC / AIGC</text>

  <rect x="550" y="338" width="848" height="38" fill="url(#blueBar)" stroke="#203864" stroke-width="2"/>
  <text x="974" y="363" text-anchor="middle" class="font centerTitle" font-size="18">Nginx 1.17.8</text>

  <path d="M470 304 L520 338 L520 320 L550 320 L550 356 L520 356 L520 388 L470 338 Z" fill="#FFFFFF" stroke="#203864" stroke-width="3"/>
  <path d="M1486 304 L1536 338 L1536 320 L1566 320 L1566 356 L1536 356 L1536 388 L1486 338 Z" fill="#FFFFFF" stroke="#203864" stroke-width="3"/>

  <rect x="220" y="410" width="1478" height="56" fill="url(#blueBar)" stroke="#203864" stroke-width="2"/>
  <text x="959" y="446" text-anchor="middle" class="font centerTitle" font-size="22">Spring Cloud Gateway</text>

  <rect x="220" y="482" width="1478" height="202" fill="url(#softAmber)" stroke="#203864" stroke-width="2"/>
  <text x="959" y="510" text-anchor="middle" class="font miniTitle">业务服务</text>

  <rect x="292" y="536" width="250" height="108" fill="#FFFFFF" stroke="#203864" stroke-width="2"/>
  <text x="417" y="568" text-anchor="middle" class="font cardTitle">extract</text>
  <text x="417" y="592" text-anchor="middle" class="font cardBody">资料提取 / ETL / 清单</text>
  <rect x="360" y="612" width="114" height="34" fill="#F8FBFF" stroke="#203864" stroke-width="2"/>
  <text x="417" y="634" text-anchor="middle" class="font pillText">OpenFeign</text>

  <rect x="606" y="548" width="156" height="50" fill="#FFFFFF" stroke="#203864" stroke-width="2"/>
  <text x="684" y="581" text-anchor="middle" class="font pillText">data / rule</text>
  <text x="684" y="602" text-anchor="middle" class="font tiny">指标 / 规则 / 框架</text>

  <line x1="780" y1="590" x2="1120" y2="590" stroke="#1F2E43" stroke-width="3" marker-start="url(#arrow)" marker-end="url(#arrow)"/>

  <rect x="1222" y="540" width="332" height="104" fill="#FFFFFF" stroke="#203864" stroke-width="2"/>
  <text x="1388" y="572" text-anchor="middle" class="font cardTitle">report</text>
  <text x="1388" y="596" text-anchor="middle" class="font cardBody">模板 / 变量 / 文档生成</text>
  <rect x="1300" y="606" width="176" height="38" fill="#F8FBFF" stroke="#203864" stroke-width="2"/>
  <text x="1388" y="631" text-anchor="middle" class="font pillText">Word Render / OpenFeign</text>

  <rect x="220" y="702" width="1478" height="128" fill="url(#softAmber)" stroke="#203864" stroke-width="2"/>
  <text x="959" y="728" text-anchor="middle" class="font miniTitle">平台基础与公共能力</text>
  <rect x="262" y="750" width="230" height="56" fill="#FFFFFF" stroke="#203864" stroke-width="2"/>
  <rect x="520" y="750" width="230" height="56" fill="#FFFFFF" stroke="#203864" stroke-width="2"/>
  <rect x="778" y="750" width="230" height="56" fill="#FFFFFF" stroke="#203864" stroke-width="2"/>
  <rect x="1036" y="750" width="230" height="56" fill="#FFFFFF" stroke="#203864" stroke-width="2"/>
  <rect x="1294" y="750" width="322" height="56" fill="#FFFFFF" stroke="#203864" stroke-width="2"/>
  <text x="377" y="785" text-anchor="middle" class="font pillText">auth-server / auth-resource</text>
  <text x="635" y="785" text-anchor="middle" class="font pillText">mdm / dg</text>
  <text x="893" y="785" text-anchor="middle" class="font pillText">Nacos 2.3.2</text>
  <text x="1151" y="785" text-anchor="middle" class="font pillText">OAuth2 / JWT / RBAC</text>
  <text x="1455" y="785" text-anchor="middle" class="font pillText">Micrometer / Prometheus / Grafana</text>

  <ellipse cx="348" cy="924" rx="160" ry="26" fill="#A7C7F3" stroke="#1A1A1A" stroke-width="3"/>
  <path d="M188 924 V986 C188 1000 260 1012 348 1012 C436 1012 508 1000 508 986 V924" fill="#A7C7F3" stroke="#1A1A1A" stroke-width="3"/>
  <text x="348" y="974" text-anchor="middle" class="font centerTitle" font-size="18">MySQL 8 / DM8 / GBase</text>

  <ellipse cx="726" cy="924" rx="160" ry="26" fill="#A7C7F3" stroke="#1A1A1A" stroke-width="3"/>
  <path d="M566 924 V986 C566 1000 638 1012 726 1012 C814 1012 886 1000 886 986 V924" fill="#A7C7F3" stroke="#1A1A1A" stroke-width="3"/>
  <text x="726" y="974" text-anchor="middle" class="font centerTitle" font-size="18">MinIO 2021-12-09</text>

  <ellipse cx="1104" cy="924" rx="160" ry="26" fill="#A7C7F3" stroke="#1A1A1A" stroke-width="3"/>
  <path d="M944 924 V986 C944 1000 1016 1012 1104 1012 C1192 1012 1264 1000 1264 986 V924" fill="#A7C7F3" stroke="#1A1A1A" stroke-width="3"/>
  <text x="1104" y="974" text-anchor="middle" class="font centerTitle" font-size="18">Redis 7.0</text>

  <ellipse cx="1482" cy="924" rx="160" ry="26" fill="#A7C7F3" stroke="#1A1A1A" stroke-width="3"/>
  <path d="M1322 924 V986 C1322 1000 1394 1012 1482 1012 C1570 1012 1642 1000 1642 986 V924" fill="#A7C7F3" stroke="#1A1A1A" stroke-width="3"/>
  <text x="1482" y="974" text-anchor="middle" class="font centerTitle" font-size="18">文件 / 计算结果 / 治理数据</text>

  <rect x="222" y="1038" width="230" height="58" fill="#FFFFFF" stroke="#203864" stroke-width="2"/>
  <rect x="484" y="1038" width="230" height="58" fill="#FFFFFF" stroke="#203864" stroke-width="2"/>
  <rect x="746" y="1038" width="230" height="58" fill="#FFFFFF" stroke="#203864" stroke-width="2"/>
  <rect x="1008" y="1038" width="230" height="58" fill="#FFFFFF" stroke="#203864" stroke-width="2"/>
  <rect x="1270" y="1038" width="230" height="58" fill="#FFFFFF" stroke="#203864" stroke-width="2"/>
  <rect x="1532" y="1038" width="166" height="58" fill="#FFFFFF" stroke="#203864" stroke-width="2"/>
  <text x="337" y="1074" text-anchor="middle" class="font centerTitle" font-size="16">Java 8</text>
  <text x="599" y="1074" text-anchor="middle" class="font centerTitle" font-size="16">Docker</text>
  <text x="861" y="1074" text-anchor="middle" class="font centerTitle" font-size="16">Docker Compose</text>
  <text x="1123" y="1074" text-anchor="middle" class="font centerTitle" font-size="16">Nginx 1.17.8</text>
  <text x="1385" y="1074" text-anchor="middle" class="font centerTitle" font-size="16">信创兼容</text>
  <text x="1615" y="1074" text-anchor="middle" class="font centerTitle" font-size="16">PPT 版</text>

  <text x="1690" y="1110" text-anchor="end" class="font tiny">说明：按截图风格重绘，废弃项已剔除，内容与当前真实系统保持一致</text>
</svg>
